# xmcd CD database file
#
# Track frame offsets:
#	150
#	22288
#	36666
#	53955
#	71286
#	86095
#	103510
#	119683
#	140401
#	160185
#	177753
#
# Disc length: 2627 seconds
#
# Revision: 0
# Processed by: cddbd v1.5.1PL2 Copyright (c) Steve Scherf et al.
# Submitted via: CDex 1.60beta1-cs1
#
DISCID=9d0a410b
DTITLE=SENS - Hotel Asia
DYEAR=2005
DGENRE=New Age
TTITLE0=Brave Soul
TTITLE1=Little Miracles
TTITLE2=Naked Truth
TTITLE3=Sorrow
TTITLE4=Willow Bridge
TTITLE5=Remembering Mereverie
TTITLE6=Hallucination
TTITLE7=Rain
TTITLE8=Asian Crossroads
TTITLE9=Our Pure Ring
TTITLE10=Coming Home
EXTD=YEAR: 2005
EXTT0=
EXTT1=
EXTT2=
EXTT3=
EXTT4=
EXTT5=
EXTT6=
EXTT7=
EXTT8=
EXTT9=
EXTT10=
PLAYORDER=
